<svg width="400" height="300" xmlns="http://www.w3.org/2000/svg">
  <defs>
    <linearGradient id="grad3" x1="0%" y1="0%" x2="100%" y2="100%">
      <stop offset="0%" style="stop-color:#667eea;stop-opacity:1" />
      <stop offset="100%" style="stop-color:#764ba2;stop-opacity:1" />
    </linearGradient>
  </defs>
  
  <!-- Background -->
  <rect width="400" height="300" fill="url(#grad3)"/>
  
  <!-- Browser window -->
  <rect x="50" y="80" width="300" height="180" rx="8" fill="white" opacity="0.95"/>
  <rect x="50" y="80" width="300" height="30" rx="8" fill="#f3f4f6"/>
  <circle cx="70" cy="95" r="4" fill="#ef4444"/>
  <circle cx="85" cy="95" r="4" fill="#f59e0b"/>
  <circle cx="100" cy="95" r="4" fill="#10b981"/>
  
  <!-- Shopping cart icon -->
  <rect x="80" y="130" width="60" height="40" rx="5" fill="#667eea" opacity="0.1"/>
  <circle cx="95" cy="155" r="3" fill="#667eea"/>
  <circle cx="115" cy="155" r="3" fill="#667eea"/>
  <polyline points="85,140 90,140 95,150 125,150" fill="none" stroke="#667eea" stroke-width="2"/>
  <polyline points="90,140 95,135" fill="none" stroke="#667eea" stroke-width="2"/>
  
  <!-- Product cards -->
  <rect x="160" y="130" width="40" height="30" rx="3" fill="#e5e7eb"/>
  <rect x="210" y="130" width="40" height="30" rx="3" fill="#e5e7eb"/>
  <rect x="260" y="130" width="40" height="30" rx="3" fill="#e5e7eb"/>
  
  <!-- React logo -->
  <circle cx="320" cy="50" r="15" fill="#61dafb" opacity="0.8"/>
  <text x="320" y="55" font-family="Arial, sans-serif" font-size="10" font-weight="bold" 
        text-anchor="middle" fill="white">⚛</text>
  
  <!-- Title -->
  <text x="200" y="40" font-family="Arial, sans-serif" font-size="24" font-weight="bold" 
        text-anchor="middle" fill="white">React E-commerce</text>
  
  <!-- Subtitle -->
  <text x="200" y="65" font-family="Arial, sans-serif" font-size="14" 
        text-anchor="middle" fill="white" opacity="0.9">Full-Stack Application</text>
  
  <!-- Shopping bag -->
  <rect x="80" y="200" width="20" height="25" rx="2" fill="white" opacity="0.8"/>
  <rect x="75" y="195" width="30" height="8" rx="4" fill="none" stroke="white" stroke-width="2" opacity="0.8"/>
</svg>
